PERFORMER "БГ"
TITLE "Аэростат vol. 183"
FILE "Boris Grebentshikov - Aerostat Radio vol.183.mp3" MP3
  TRACK 01 AUDIO
    TITLE "Заставка"
    PERFORMER "БГ"
    INDEX 01 00:00:00
  TRACK 02 AUDIO
    TITLE "Вступление"
    PERFORMER "БГ"
    INDEX 01 00:34:32
  TRACK 03 AUDIO
    TITLE "La Cour De Lys"
    PERFORMER "Claude Debussy"
    INDEX 01 01:27:21
  TRACK 04 AUDIO
    TITLE "Комментарии"
    PERFORMER "БГ"
    INDEX 01 04:56:75
  TRACK 05 AUDIO
    TITLE "Danseuses de Delphes"
    PERFORMER "Claude Debussy"
    INDEX 01 06:16:92
  TRACK 06 AUDIO
    TITLE "Комментарии"
    PERFORMER "БГ"
    INDEX 01 09:14:10
  TRACK 07 AUDIO
    TITLE "La Fille aux Cheveux de Lin"
    PERFORMER "Claude Debussy"
    INDEX 01 10:15:22
  TRACK 08 AUDIO
    TITLE "Комментарии"
    PERFORMER "БГ"
    INDEX 01 13:18:94
  TRACK 09 AUDIO
    TITLE "Syrinx"
    PERFORMER "Claude Debussy"
    INDEX 01 13:58:31
  TRACK 10 AUDIO
    TITLE "Комментарии"
    PERFORMER "БГ"
    INDEX 01 16:16:68
  TRACK 11 AUDIO
    TITLE "String Quartet G min, op.10. I."
    PERFORMER "Claude Debussy"
    INDEX 01 17:15:85
  TRACK 12 AUDIO
    TITLE "Комментарии"
    PERFORMER "БГ"
    INDEX 01 23:47:78
  TRACK 13 AUDIO
    TITLE "Clair de Lune from Suite Bergamasque"
    PERFORMER "Claude Debussy"
    INDEX 01 25:15:37
  TRACK 14 AUDIO
    TITLE "Комментарии"
    PERFORMER "БГ"
    INDEX 01 29:49:02
  TRACK 15 AUDIO
    TITLE "Sonata For Flute, Viola And Harp, 1"
    PERFORMER "Claude Debussy"
    INDEX 01 30:42:49
  TRACK 16 AUDIO
    TITLE "Комментарии"
    PERFORMER "БГ"
    INDEX 01 37:08:77
  TRACK 17 AUDIO
    TITLE "No 10, Canope"
    PERFORMER "Claude Debussy" 
    INDEX 01 37:51:36
  TRACK 18 AUDIO
    TITLE "Заключение"
    PERFORMER "БГ"
    INDEX 01 40:26:47
  TRACK 19 AUDIO
    TITLE "Danse Sacree"
    PERFORMER "Claude Debussy"
    INDEX 01 40:57:85
  TRACK 20 AUDIO
    TITLE "Заставка"
    PERFORMER "БГ"
    INDEX 01 45:40:31
